# Blender v2.79 (sub 0) OBJ File: 'GrassFlower.blend'
# www.blender.org
mtllib GrassFlower.mtl
o Plane.002
v 0.212963 -0.000009 40.000000
v 0.212963 0.000004 0.000000
v -0.217230 0.000004 0.000000
v -0.217230 -0.000009 40.000000
v 2.177106 -2.158636 40.021992
v -2.181372 -2.158636 40.021992
v -2.176942 2.158125 40.021992
v 2.183253 2.159113 40.021992
vt 0.997454 0.745981
vt 0.998155 0.987567
vt 0.500940 0.987512
vt 0.500435 0.745981
vt 0.479895 0.738288
vt 0.466808 0.000006
vt 0.565472 0.000000
vt 0.576514 0.738881
vn 0.0000 0.0000 1.0000
vn 0.0000 1.0000 0.0000
usemtl None
s off
f 5/1/1 8/2/1 7/3/1 6/4/1
s 1
f 1/5/2 2/6/2 3/7/2 4/8/2
